<svg width="24" height="24" viewBox="0 0 24 24" fill="none" xmlns="http://www.w3.org/2000/svg">
<g id="shopping 1" clip-path="url(#clip0_209_74)">
<g id="Group">
<g id="Group_2">
<path id="Vector" d="M24 14.8053V10.0136H21.0326L14.0085 3.52323C14.0873 3.3009 14.1307 3.06189 14.1307 2.81281C14.1307 1.63795 13.1749 0.682129 12 0.682129C10.8251 0.682129 9.86932 1.63795 9.86932 2.81281C9.86932 3.06187 9.91267 3.3009 9.99155 3.52323L2.96739 10.0136H0V14.8053H0.838911L3.75375 23.3182H20.2462L23.161 14.8053H24V14.8053ZM15.903 17.3538H12.8412V14.8285H16.1524L15.903 17.3538ZM11.1588 21.6357H8.5198L8.2631 19.0363H11.1588V21.6357ZM8.09698 17.3538L7.84763 14.8285H11.1588V17.3538H8.09698ZM12.4482 2.81281C12.4482 2.94273 12.3923 3.05956 12.3037 3.14149C12.2238 3.21542 12.1172 3.26102 12 3.26102C11.8828 3.26102 11.7763 3.21542 11.6963 3.14149C11.6077 3.05954 11.5518 2.94273 11.5518 2.81281C11.5518 2.68289 11.6077 2.56605 11.6963 2.48413C11.7762 2.4102 11.8828 2.3646 12 2.3646C12.1172 2.3646 12.2237 2.4102 12.3037 2.48413C12.3923 2.56608 12.4482 2.68289 12.4482 2.81281ZM11.1336 4.75869C11.3985 4.87711 11.6916 4.94351 12 4.94351C12.3084 4.94351 12.6015 4.87711 12.8664 4.75869L18.5535 10.0136H5.44657L11.1336 4.75869ZM1.68247 11.696H22.3175V13.1229H1.68247V11.696ZM6.15699 14.8285L6.40634 17.3538H3.4899L2.62525 14.8285H6.15699ZM4.95605 21.6357L4.06597 19.0363H6.57249L6.82916 21.6357H4.95605ZM12.8412 19.0362H15.7369L15.4802 21.6357H12.8412V19.0362ZM19.044 21.6357H17.1708L17.4275 19.0363H19.934L19.044 21.6357ZM20.5101 17.3538H17.5937L17.843 14.8285H21.3748L20.5101 17.3538Z" fill="#0C0D36"/>
</g>
</g>
</g>
<defs>
<clipPath id="clip0_209_74">
<rect width="24" height="24" fill="white"/>
</clipPath>
</defs>
</svg>
